<svg width="34" height="34" viewBox="0 0 34 34" fill="none" xmlns="http://www.w3.org/2000/svg">
<path d="M3.54167 5.98682C3.54167 5.41876 4.04059 4.95825 4.65602 4.95825H5.48549C6.89771 4.95825 7.74327 5.83458 8.2268 6.64921C8.54909 7.19223 8.78224 7.82204 8.96461 8.39224C9.014 8.38866 9.06404 8.38682 9.11465 8.38682H27.6833C28.9168 8.38682 29.8075 9.47631 29.4694 10.5712L26.7536 19.3609C26.2532 20.9809 24.6494 22.0981 22.8244 22.0981H13.9866C12.1464 22.0981 10.5333 20.9627 10.0463 19.3248L8.91635 15.5244L7.04631 9.69761L7.04328 9.6874C6.81194 8.90867 6.59482 8.18118 6.27219 7.63761C5.95887 7.10975 5.70912 7.01539 5.48549 7.01539H4.65602C4.04059 7.01539 3.54167 6.55488 3.54167 5.98682ZM13.1994 28.9583C14.8407 28.9583 16.1711 27.7303 16.1711 26.2154C16.1711 24.7005 14.8407 23.4725 13.1994 23.4725C11.5583 23.4725 10.2278 24.7005 10.2278 26.2154C10.2278 27.7303 11.5583 28.9583 13.1994 28.9583ZM23.6001 28.9583C25.2413 28.9583 26.5717 27.7303 26.5717 26.2154C26.5717 24.7005 25.2413 23.4725 23.6001 23.4725C21.9589 23.4725 20.6285 24.7005 20.6285 26.2154C20.6285 27.7303 21.9589 28.9583 23.6001 28.9583Z" fill="#212121"/>
</svg>
