<svg width="34" height="34" viewBox="0 0 34 34" fill="none" xmlns="http://www.w3.org/2000/svg">
<path d="M3.54163 5.98682C3.54163 5.41876 4.04055 4.95825 4.65598 4.95825H5.48545C6.89767 4.95825 7.74323 5.83458 8.22676 6.64921C8.54905 7.19223 8.7822 7.82204 8.96457 8.39224C9.01396 8.38866 9.064 8.38682 9.11461 8.38682H27.6832C28.9168 8.38682 29.8075 9.47631 29.4693 10.5712L26.7536 19.3609C26.2531 20.9809 24.6494 22.0981 22.8243 22.0981H13.9865C12.1464 22.0981 10.5333 20.9627 10.0463 19.3248L8.91631 15.5244L7.04627 9.69761L7.04324 9.6874C6.8119 8.90867 6.59478 8.18118 6.27215 7.63761C5.95883 7.10975 5.70908 7.01539 5.48545 7.01539H4.65598C4.04055 7.01539 3.54163 6.55488 3.54163 5.98682ZM11.0789 15.0249L12.1955 18.7803C12.4169 19.5249 13.1501 20.0409 13.9865 20.0409H22.8243C23.6539 20.0409 24.3828 19.5331 24.6104 18.7968L27.191 10.444H9.61189L11.0584 14.9516C11.0663 14.976 11.0731 15.0004 11.0789 15.0249ZM16.171 26.2154C16.171 27.7303 14.8406 28.9583 13.1994 28.9583C11.5582 28.9583 10.2278 27.7303 10.2278 26.2154C10.2278 24.7005 11.5582 23.4725 13.1994 23.4725C14.8406 23.4725 16.171 24.7005 16.171 26.2154ZM13.9423 26.2154C13.9423 25.8367 13.6097 25.5297 13.1994 25.5297C12.7891 25.5297 12.4565 25.8367 12.4565 26.2154C12.4565 26.594 12.7891 26.9011 13.1994 26.9011C13.6097 26.9011 13.9423 26.594 13.9423 26.2154ZM26.5717 26.2154C26.5717 27.7303 25.2413 28.9583 23.6001 28.9583C21.9589 28.9583 20.6285 27.7303 20.6285 26.2154C20.6285 24.7005 21.9589 23.4725 23.6001 23.4725C25.2413 23.4725 26.5717 24.7005 26.5717 26.2154ZM24.343 26.2154C24.343 25.8367 24.0103 25.5297 23.6001 25.5297C23.1898 25.5297 22.8572 25.8367 22.8572 26.2154C22.8572 26.594 23.1898 26.9011 23.6001 26.9011C24.0103 26.9011 24.343 26.594 24.343 26.2154Z" fill="#232020"/>
</svg>
