<svg width="34" height="34" viewBox="0 0 34 34" fill="none" xmlns="http://www.w3.org/2000/svg">
<path d="M25.8502 31.1418H8.14984V33.3227H25.8502V31.1418Z" fill="#808080"/>
<path d="M27.9044 0.677246H17V31.1418H27.9044V0.677246Z" fill="#CCCCCC"/>
<path d="M16.9999 0.677246H6.09549V31.1418H16.9999V0.677246Z" fill="#CCCCCC"/>
<path d="M5.67728 0C5.30328 0 5 0.303277 5 0.677277V31.1418C5 31.5158 5.30328 31.8191 5.67728 31.8191H7.05448V33.3227C7.05448 33.6967 7.35775 33.9999 7.73175 33.9999H25.4318C25.8058 33.9999 26.1091 33.6967 26.1091 33.3227V31.8191H27.4863C27.8603 31.8191 28.1636 31.5158 28.1636 31.1418V0.677277C28.1636 0.303277 27.8603 0 27.4863 0H5.67728ZM6.35455 30.4645V1.35455H15.9045V30.4645H6.35455ZM24.7545 31.8192V32.6454H8.40903V31.8192H24.7545ZM17.2591 30.4645V1.35455H26.809V30.4645H17.2591Z" fill="#4D3D36"/>
<path d="M18.7626 20.4375C19.1366 20.4375 19.4399 20.1342 19.4399 19.7602V19.438C19.4399 19.064 19.1366 18.7607 18.7626 18.7607C18.3886 18.7607 18.0854 19.064 18.0854 19.438V19.7602C18.0854 20.1342 18.3886 20.4375 18.7626 20.4375Z" fill="#4D3D36"/>
<path d="M18.7626 17.8125C19.1366 17.8125 19.4399 17.5092 19.4399 17.1352V12.2632C19.4399 11.8892 19.1366 11.5859 18.7626 11.5859C18.3886 11.5859 18.0854 11.8892 18.0854 12.2632V17.1352C18.0854 17.5092 18.3886 17.8125 18.7626 17.8125Z" fill="#4D3D36"/>
<path d="M14.4009 20.4374C14.7749 20.4374 15.0782 20.1341 15.0782 19.7601V12.2632C15.0782 11.8892 14.7749 11.5859 14.4009 11.5859C14.0269 11.5859 13.7237 11.8892 13.7237 12.2632V19.7601C13.7236 20.1341 14.0269 20.4374 14.4009 20.4374Z" fill="#4D3D36"/>
</svg>
