<svg width="66" height="66" viewBox="0 0 66 66" fill="none" xmlns="http://www.w3.org/2000/svg">
<path d="M24.6104 23.6495C24.6104 13.7104 32.6837 5.63696 42.6228 5.63696C52.5148 5.63696 60.6353 13.3888 60.6353 23.3745C60.6353 33.3135 52.5618 41.387 42.6228 41.387C41.1645 41.387 39.724 41.178 38.3581 40.8265C38.2913 42.6663 36.7788 44.137 34.9228 44.137H30.1103V48.9495C30.1103 50.8481 28.5714 52.387 26.6729 52.387H21.8604V55.8245C21.8604 58.4823 19.7057 60.637 17.0479 60.637H10.1729C7.51498 60.637 5.36035 58.4823 5.36035 55.8245V49.8526C5.36035 47.847 6.15711 45.9234 7.57534 44.5052L24.7238 27.3568C24.8736 27.207 24.9631 26.9646 24.9141 26.6855C24.7483 25.7405 24.6104 24.7143 24.6104 23.6495ZM50.1856 19.2495C50.1856 17.351 48.6464 15.812 46.7481 15.812C44.8495 15.812 43.3106 17.351 43.3106 19.2495C43.3106 21.148 44.8495 22.687 46.7481 22.687C48.6464 22.687 50.1856 21.148 50.1856 19.2495Z" fill="#181818"/>
</svg>
