<svg width="34" height="34" viewBox="0 0 34 34" fill="none" xmlns="http://www.w3.org/2000/svg">
<path d="M7.33951 26.6746L7.3395 26.6746C6.58501 25.8141 6.17221 24.7217 6.17221 23.5943V22.7856C6.17221 21.3348 7.38327 20.1365 8.90506 20.1365H25.4393C26.9612 20.1365 28.1722 21.3348 28.1722 22.7856V23.5913C28.1722 24.7205 27.758 25.8145 27.0012 26.6757C24.8701 29.101 21.5979 30.3401 17.1675 30.3401C12.7362 30.3401 9.46614 29.1005 7.33951 26.6746ZM25.4393 21.2369H8.90506C8.04682 21.2369 7.32853 21.918 7.32853 22.7856V23.5943C7.32853 24.4672 7.64832 25.3095 8.22733 25.9699C10.1578 28.1719 13.1478 29.2397 17.1675 29.2397C21.1873 29.2397 24.1794 28.1718 26.1142 25.97C26.6951 25.309 27.0159 24.4655 27.0159 23.5913V22.7856C27.0159 21.918 26.2976 21.2369 25.4393 21.2369ZM17.1675 3.34009C20.8735 3.34009 23.8553 6.26311 23.8553 9.84134C23.8553 13.4196 20.8735 16.3426 17.1675 16.3426C13.4615 16.3426 10.4797 13.4196 10.4797 9.84134C10.4797 6.26311 13.4615 3.34009 17.1675 3.34009ZM17.1675 4.44046C14.1251 4.44046 11.6361 6.84621 11.6361 9.84134C11.6361 12.8365 14.1251 15.2422 17.1675 15.2422C20.21 15.2422 22.6989 12.8365 22.6989 9.84134C22.6989 6.84622 20.21 4.44046 17.1675 4.44046Z" fill="#212121" stroke="black"/>
</svg>
