<svg width="43" height="53" viewBox="0 0 43 53" fill="none" xmlns="http://www.w3.org/2000/svg">
<path d="M36.6056 31.7505C39.8661 31.7505 42.5089 34.3934 42.5089 37.6539V40.0647C42.5089 41.5699 42.0385 43.0372 41.1633 44.2618C37.1054 49.9402 30.4791 52.7534 21.501 52.7534C12.5209 52.7534 5.89812 49.9392 1.84995 44.2576C0.978553 43.0346 0.510254 41.5704 0.510254 40.0686V37.6539C0.510254 34.3934 3.15323 31.7505 6.41354 31.7505H36.6056ZM21.501 0.262817C28.7497 0.262817 34.626 6.13909 34.626 13.3878C34.626 20.6366 28.7497 26.5129 21.501 26.5129C14.2522 26.5129 8.37594 20.6366 8.37594 13.3878C8.37594 6.13909 14.2522 0.262817 21.501 0.262817Z" fill="#181818"/>
</svg>
